<svg width="25" height="25" viewBox="0 0 25 25" fill="none" xmlns="http://www.w3.org/2000/svg">
<g clip-path="url(#clip0_3_664)">
<path d="M1.56439 12.9384C1.56439 4.93835 4.56439 1.93835 12.5644 1.93835C20.5644 1.93835 23.5644 4.93835 23.5644 12.9384C23.5644 20.9384 20.5644 23.9384 12.5644 23.9384C4.56439 23.9384 1.56439 20.9384 1.56439 12.9384Z" fill="#FF9D17"/>
<path fill-rule="evenodd" clip-rule="evenodd" d="M8.20439 9.56835H12.8544L12.6444 8.83835C12.5802 8.62578 12.4471 8.44061 12.266 8.31206C12.0849 8.1835 11.8662 8.11887 11.6444 8.12835H7.56439C7.29918 8.12835 7.04482 8.23371 6.85729 8.42125C6.66975 8.60878 6.56439 8.86314 6.56439 9.12835V11.1984C6.56439 10.9835 6.60688 10.7707 6.68942 10.5723C6.77196 10.3738 6.89292 10.1937 7.04534 10.0422C7.19776 9.89073 7.37863 9.77087 7.57755 9.68955C7.77646 9.60822 7.9895 9.56704 8.20439 9.56835Z" fill="#FFCB83"/>
<path fill-rule="evenodd" clip-rule="evenodd" d="M17.5644 17.7484H7.56439C7.29918 17.7484 7.04482 17.643 6.85729 17.4555C6.66975 17.2679 6.56439 17.0136 6.56439 16.7484V10.5684C6.56439 10.3031 6.66975 10.0488 6.85729 9.86125C7.04482 9.67372 7.29918 9.56836 7.56439 9.56836H17.5644C17.8296 9.56836 18.084 9.67372 18.2715 9.86125C18.459 10.0488 18.5644 10.3031 18.5644 10.5684V16.7484C18.5644 17.0136 18.459 17.2679 18.2715 17.4555C18.084 17.643 17.8296 17.7484 17.5644 17.7484Z" fill="white"/>
</g>
<defs>
<clipPath id="clip0_3_664">
<rect width="24" height="24" fill="white" transform="translate(0.564392 0.938354)"/>
</clipPath>
</defs>
</svg>
