<svg width="25" height="25" viewBox="0 0 25 25" fill="none" xmlns="http://www.w3.org/2000/svg">
<g clip-path="url(#clip0_3_1026)">
<path d="M1.52966 12.9384C1.52966 4.93835 4.52966 1.93835 12.5297 1.93835C20.5297 1.93835 23.5297 4.93835 23.5297 12.9384C23.5297 20.9384 20.5297 23.9384 12.5297 23.9384C4.52966 23.9384 1.52966 20.9384 1.52966 12.9384Z" fill="#00ABE8"/>
<path fill-rule="evenodd" clip-rule="evenodd" d="M17.5297 7.93833L6.77968 12.4783C6.70172 12.5095 6.63488 12.5633 6.58781 12.6328C6.54073 12.7023 6.51556 12.7844 6.51556 12.8683C6.51556 12.9523 6.54073 13.0343 6.58781 13.1038C6.63488 13.1734 6.70172 13.2272 6.77968 13.2583L8.77968 13.8883C9.09613 13.9861 9.43063 14.0107 9.758 13.9605C10.0854 13.9103 10.3971 13.7864 10.6697 13.5983L15.1997 10.4683C15.232 10.4516 15.2691 10.4465 15.3048 10.4537C15.3405 10.4609 15.3727 10.4801 15.396 10.5081C15.4193 10.5361 15.4324 10.5711 15.433 10.6076C15.4337 10.644 15.4219 10.6795 15.3997 10.7083L11.9297 14.0283C11.8414 14.115 11.7734 14.22 11.7304 14.336C11.6874 14.452 11.6706 14.576 11.6811 14.6992C11.6916 14.8224 11.7292 14.9418 11.7912 15.0489C11.8532 15.1559 11.938 15.2479 12.0397 15.3183L15.7697 17.8383C15.8863 17.9151 16.0201 17.9616 16.1592 17.9737C16.2983 17.9857 16.4381 17.9629 16.5662 17.9073C16.6942 17.8517 16.8064 17.7651 16.8926 17.6553C16.9787 17.5455 17.0362 17.4159 17.0597 17.2783L18.5297 8.73833C18.5523 8.60935 18.5399 8.47666 18.4936 8.35416C18.4473 8.23165 18.369 8.12385 18.2667 8.04205C18.1645 7.96024 18.0421 7.90745 17.9124 7.8892C17.7827 7.87096 17.6505 7.88792 17.5297 7.93833Z" fill="white"/>
</g>
<defs>
<clipPath id="clip0_3_1026">
<rect width="24" height="24" fill="white" transform="translate(0.529663 0.938354)"/>
</clipPath>
</defs>
</svg>
